<svg width="38" height="38" viewBox="0 0 38 38" fill="none" xmlns="http://www.w3.org/2000/svg">
<g filter="url(#filter0_dd_24016_147649)">
<mask id="path-1-inside-1_24016_147649" fill="white">
<path d="M3 8C3 4.68629 5.68629 2 9 2H29C32.3137 2 35 4.68629 35 8V28C35 31.3137 32.3137 34 29 34H9C5.68629 34 3 31.3137 3 28V8Z"/>
</mask>
<path d="M3 8C3 4.68629 5.68629 2 9 2H29C32.3137 2 35 4.68629 35 8V28C35 31.3137 32.3137 34 29 34H9C5.68629 34 3 31.3137 3 28V8Z" fill="#171717"/>
<path d="M3 8C3 4.68629 5.68629 2 9 2H29C32.3137 2 35 4.68629 35 8V28C35 31.3137 32.3137 34 29 34H9C5.68629 34 3 31.3137 3 28V8Z" fill="url(#paint0_linear_24016_147649)" fill-opacity="0.05"/>
<path d="M9 2V3H29V2V1H9V2ZM35 8H34V28H35H36V8H35ZM29 34V33H9V34V35H29V34ZM3 28H4V8H3H2V28H3ZM9 34V33C6.23858 33 4 30.7614 4 28H3H2C2 31.866 5.13401 35 9 35V34ZM35 28H34C34 30.7614 31.7614 33 29 33V34V35C32.866 35 36 31.866 36 28H35ZM29 2V3C31.7614 3 34 5.23858 34 8H35H36C36 4.13401 32.866 1 29 1V2ZM9 2V1C5.13401 1 2 4.13401 2 8H3H4C4 5.23858 6.23858 3 9 3V2Z" fill="white" fill-opacity="0.1" mask="url(#path-1-inside-1_24016_147649)"/>
<path d="M17.4302 25L12.2902 10.8H15.0302L19.0102 22.1L22.9702 10.8H25.7102L20.5502 25H17.4302Z" fill="white"/>
</g>
<defs>
<filter id="filter0_dd_24016_147649" x="0" y="0" width="38" height="38" filterUnits="userSpaceOnUse" color-interpolation-filters="sRGB">
<feFlood flood-opacity="0" result="BackgroundImageFix"/>
<feColorMatrix in="SourceAlpha" type="matrix" values="0 0 0 0 0 0 0 0 0 0 0 0 0 0 0 0 0 0 127 0" result="hardAlpha"/>
<feMorphology radius="1" operator="erode" in="SourceAlpha" result="effect1_dropShadow_24016_147649"/>
<feOffset dy="1"/>
<feGaussianBlur stdDeviation="1"/>
<feColorMatrix type="matrix" values="0 0 0 0 0 0 0 0 0 0 0 0 0 0 0 0 0 0 0.1 0"/>
<feBlend mode="normal" in2="BackgroundImageFix" result="effect1_dropShadow_24016_147649"/>
<feColorMatrix in="SourceAlpha" type="matrix" values="0 0 0 0 0 0 0 0 0 0 0 0 0 0 0 0 0 0 127 0" result="hardAlpha"/>
<feOffset dy="1"/>
<feGaussianBlur stdDeviation="1.5"/>
<feColorMatrix type="matrix" values="0 0 0 0 0 0 0 0 0 0 0 0 0 0 0 0 0 0 0.1 0"/>
<feBlend mode="normal" in2="effect1_dropShadow_24016_147649" result="effect2_dropShadow_24016_147649"/>
<feBlend mode="normal" in="SourceGraphic" in2="effect2_dropShadow_24016_147649" result="shape"/>
</filter>
<linearGradient id="paint0_linear_24016_147649" x1="19" y1="2" x2="19" y2="34" gradientUnits="userSpaceOnUse">
<stop stop-color="#171717" stop-opacity="0"/>
<stop offset="1" stop-color="#E5E5E5"/>
</linearGradient>
</defs>
</svg>
